<svg width="321" height="401" viewBox="0 0 321 401" fill="none" xmlns="http://www.w3.org/2000/svg">
<path d="M237.167 100.292V103.792H240.667H300.792C305.179 103.792 309.386 105.534 312.488 108.637C315.591 111.739 317.333 115.946 317.333 120.333V340.792C317.333 355.81 311.368 370.212 300.748 380.832C290.129 391.451 275.726 397.417 260.708 397.417H60.2917C45.2739 397.417 30.8711 391.451 20.2518 380.832C9.63258 370.212 3.66675 355.81 3.66675 340.792V120.333C3.66675 115.946 5.40953 111.739 8.51169 108.637C11.6139 105.534 15.8213 103.792 20.2084 103.792H80.3334H83.8334V100.292V80.25C83.8334 59.9168 91.9108 40.4163 106.289 26.0385C120.666 11.6607 140.167 3.58337 160.5 3.58337C180.833 3.58337 200.334 11.6607 214.712 26.0385C229.089 40.4163 237.167 59.9168 237.167 80.25V100.292ZM200.583 103.792H204.083V100.292V80.25C204.083 68.691 199.492 57.6054 191.318 49.432C183.145 41.2585 172.059 36.6667 160.5 36.6667C148.941 36.6667 137.855 41.2585 129.682 49.432C121.509 57.6054 116.917 68.691 116.917 80.25V100.292V103.792H120.417H200.583ZM40.2501 136.875H36.7501V140.375V340.792C36.7501 347.035 39.2304 353.023 43.6453 357.438C48.0602 361.853 54.0481 364.333 60.2917 364.333H260.708C266.952 364.333 272.94 361.853 277.355 357.438C281.77 353.023 284.25 347.035 284.25 340.792V140.375V136.875H280.75H240.667H237.167V140.375V160.417C237.167 164.804 235.424 169.011 232.322 172.113C229.22 175.216 225.012 176.958 220.625 176.958C216.238 176.958 212.031 175.216 208.928 172.113C205.826 169.011 204.083 164.804 204.083 160.417V140.375V136.875H200.583H120.417H116.917V140.375V160.417C116.917 164.804 115.174 169.011 112.072 172.113C108.97 175.216 104.762 176.958 100.375 176.958C95.988 176.958 91.7805 175.216 88.6784 172.113C85.5762 169.011 83.8334 164.804 83.8334 160.417V140.375V136.875H80.3334H40.2501Z" fill="#815034" stroke="white" stroke-width="7"/>
</svg>
