<svg width="36" height="21" viewBox="0 0 36 21" fill="none" xmlns="http://www.w3.org/2000/svg">
<path d="M35.1991 4.95361L19.7152 20.4836C19.5309 20.6679 19.3312 20.7982 19.1162 20.8743C18.9011 20.9518 18.6707 20.9905 18.4249 20.9905C18.1791 20.9905 17.9487 20.9518 17.7337 20.8743C17.5186 20.7982 17.3189 20.6679 17.1346 20.4836L1.60463 4.95361C1.17453 4.5235 0.959473 3.98587 0.959473 3.34071C0.959473 2.69555 1.18989 2.14255 1.65072 1.68172C2.11155 1.22089 2.64918 0.990478 3.26362 0.990478C3.87806 0.990478 4.41569 1.22089 4.87652 1.68172L18.4249 15.2301L31.9733 1.68172C32.4034 1.25161 32.9331 1.03656 33.5622 1.03656C34.1927 1.03656 34.7383 1.26698 35.1991 1.7278C35.6599 2.18863 35.8903 2.72627 35.8903 3.34071C35.8903 3.95515 35.6599 4.49278 35.1991 4.95361Z" fill="#815034"/>
</svg>
