<svg width="1348" height="1172" viewBox="0 0 1348 1172" fill="none" xmlns="http://www.w3.org/2000/svg">
<path d="M861 1172V965.722C861 910.474 861 882.879 846.206 862.316C836.517 848.844 822.582 837.656 805.8 829.877C780.187 818 745.816 818 677 818C608.184 818 573.813 818 548.2 829.877C531.418 837.656 517.483 848.844 507.794 862.316C493 882.879 493 910.474 493 965.722V1172H861Z" fill="#815034"/>
<path d="M221.169 596.191H221.171C277.884 596.179 332.824 579.079 375.305 547.863C409.005 523.1 433.103 490.719 444.557 454.772C445.674 457.929 446.888 461.065 448.199 464.178C459.127 490.114 476.527 513.745 499.134 533.632C521.737 553.516 549.082 569.253 579.368 579.932C609.656 590.611 642.295 596.025 675.216 595.864C708.137 595.703 740.697 589.97 770.829 578.993C800.96 568.017 828.077 552.01 850.391 531.899C872.71 511.785 889.764 487.976 900.309 461.926C901.279 459.53 902.192 457.12 903.047 454.699C911.275 480.522 926.062 504.627 946.433 525.418C974.195 553.751 1011.19 574.79 1052.87 586.267C1094.56 597.745 1139.38 599.235 1182.04 590.58C1217.32 583.423 1250.05 569.545 1277.54 550.07V703.441C1277.54 814.324 1277.51 896.259 1267.1 959.112C1256.77 1021.43 1236.44 1063.66 1196.61 1095.97L1196.61 1095.97C1164.32 1122.18 1123.73 1138.22 1068.49 1147.91C1015.21 1157.26 948.942 1160.6 864.292 1161.78V967.253V966.639C864.292 939.752 864.292 918.743 862.416 901.942C860.499 884.775 856.536 870.966 847.927 858.864C837.317 843.944 822.232 831.789 804.381 823.421C790.224 816.782 774.122 813.703 753.582 812.191C733.204 810.691 707.593 810.691 674.19 810.691H673.771H673.352C639.949 810.691 614.338 810.691 593.96 812.191C573.42 813.703 557.318 816.782 543.161 823.421C525.31 831.788 510.226 843.944 499.616 858.863C491.006 870.965 487.043 884.775 485.126 901.942C483.25 918.743 483.25 939.752 483.25 966.639V967.253V1161.78C398.598 1160.61 332.331 1157.28 279.047 1147.93C223.807 1138.25 183.22 1122.21 150.935 1095.97L150.928 1095.97C111.1 1063.66 90.7673 1021.43 80.4441 959.112C70.0319 896.259 70 814.324 70 703.441V550.063C110.308 578.742 162.995 596.191 221.169 596.191Z" fill="#E9E5DC" stroke="#815034" stroke-width="20"/>
<path d="M452.023 387.314L498.495 10H845.505L891.977 387.314C891.978 387.319 891.978 387.323 891.979 387.327C894.902 411.653 891.537 436.241 882.036 459.554C872.528 482.887 857.044 504.515 836.426 522.978C815.803 541.446 790.532 556.306 762.182 566.508C733.833 576.71 703.109 582 672 582C640.891 582 610.167 576.71 581.818 566.508C553.468 556.306 528.197 541.446 507.574 522.978C486.956 504.515 471.472 482.887 461.964 459.554C452.463 436.241 449.098 411.654 452.021 387.329C452.021 387.324 452.022 387.319 452.023 387.314Z" fill="#CFB6A2" stroke="#815034" stroke-width="20"/>
<path d="M47.6735 196.452C60.5266 144.276 66.9531 118.188 80.0228 97.0244C93.6489 74.9775 112.835 55.5042 136.334 39.8694C159.834 24.2346 187.121 12.7879 216.424 6.27288C244.586 6.67572e-06 277.296 0 342.861 0H501L470 214L440.92 424.738C438.075 448.995 429.174 472.527 414.758 493.899C400.343 515.27 380.716 534.034 357.075 549.044C333.433 564.055 306.274 574.998 277.252 581.206C248.23 587.414 217.955 588.757 188.272 585.152C158.59 581.548 130.124 573.072 104.609 560.242C79.095 547.411 57.0674 530.495 39.8704 510.525C22.6735 490.556 10.6676 467.951 4.58522 444.09C-1.49717 420.229 -1.52857 395.612 4.49293 371.741L47.6735 196.452ZM1299.77 196.452C1286.91 144.276 1280.49 118.188 1267.42 97.0244C1253.8 74.9836 1234.62 55.5142 1211.14 39.8797C1187.65 24.2452 1160.38 12.7952 1131.09 6.27288C1102.93 6.67572e-06 1070.14 0 1004.58 0H854.24L906.592 424.738C909.354 449.046 918.198 472.64 932.583 494.076C946.967 515.512 966.588 534.34 990.246 549.405C1013.9 564.471 1041.1 575.458 1070.17 581.694C1099.24 587.93 1129.57 589.284 1159.3 585.672C1189.04 582.061 1217.56 573.56 1243.1 560.69C1268.65 547.821 1290.7 530.853 1307.89 510.826C1325.08 490.799 1337.06 468.134 1343.09 444.219C1349.11 420.304 1349.07 395.641 1342.95 371.741L1299.77 196.452Z" fill="#815034"/>
</svg>
